<svg xmlns="http://www.w3.org/2000/svg" viewBox="0 0 48 48" fill="none">
  <rect width="48" height="48" rx="14" fill="url(#coparent-bg)"/>
  <path d="M14.7 27.2c0-5.1 4.1-9.2 9.3-9.2s9.3 4.1 9.3 9.2" stroke="white" stroke-width="3.4" stroke-linecap="round"/>
  <path d="M10.2 24.2c1.4-4.9 5.8-8.5 11.1-8.9" stroke="#DDF6FF" stroke-width="3" stroke-linecap="round"/>
  <path d="M37.8 24.2c-1.4-4.9-5.8-8.5-11.1-8.9" stroke="#D9FBE8" stroke-width="3" stroke-linecap="round"/>
  <circle cx="15.5" cy="24.5" r="3.4" fill="#DDF6FF"/>
  <circle cx="32.5" cy="24.5" r="3.4" fill="#D9FBE8"/>
  <path d="M24 32.9l-1.1-1c-3.9-3.5-6.5-5.9-6.5-8.8 0-2.4 1.9-4.1 4.2-4.1 1.3 0 2.6.6 3.4 1.6.8-1 2.1-1.6 3.4-1.6 2.3 0 4.2 1.7 4.2 4.1 0 2.9-2.6 5.3-6.5 8.8l-1.1 1Z" fill="white"/>
  <defs>
    <linearGradient id="coparent-bg" x1="6" y1="5" x2="43" y2="44" gradientUnits="userSpaceOnUse">
      <stop stop-color="#0E8FE7"/>
      <stop offset="0.58" stop-color="#16A085"/>
      <stop offset="1" stop-color="#52A85A"/>
    </linearGradient>
  </defs>
</svg>
