<svg xmlns="http://www.w3.org/2000/svg" viewBox="0 0 400 300" fill="none">
  <defs>
    <linearGradient id="goldGradient" x1="0%" y1="0%" x2="100%" y2="0%">
      <stop offset="0%" stop-color="#D4AF37"/>
      <stop offset="50%" stop-color="#F9E076"/>
      <stop offset="100%" stop-color="#D4AF37"/>
    </linearGradient>
  </defs>
  <path d="M80 180C80 140 100 110 130 110" stroke="#2D5A6E" stroke-width="12" stroke-linecap="round"/>
  <circle cx="85" cy="95" r="12" fill="#2D5A6E"/>
  <path d="M320 180C320 140 300 110 270 110" stroke="#7DA68D" stroke-width="12" stroke-linecap="round"/>
  <circle cx="315" cy="95" r="12" fill="#7DA68D"/>
  <circle cx="185" cy="145" r="8" fill="#D4AF37"/>
  <circle cx="215" cy="145" r="8" fill="#D4AF37"/>
  <path d="M170 190C175 160 195 160 200 190" stroke="#D4AF37" stroke-width="8" stroke-linecap="round"/>
  <path d="M200 190C205 160 225 160 230 190" stroke="#D4AF37" stroke-width="8" stroke-linecap="round"/>
  <path d="M100 130C150 130 180 80 200 80C220 80 250 130 300 130" stroke="url(#goldGradient)" stroke-width="6" stroke-linecap="round"/>
</svg>
